<svg width="194" height="164" viewBox="0 0 194 164" fill="none" xmlns="http://www.w3.org/2000/svg">
<g filter="url(#filter0_dii_7_1095)">
<rect x="24" y="24" width="146" height="116" rx="58" fill="url(#paint0_radial_7_1095)"/>
</g>
<g clip-path="url(#clip0_7_1095)">
<mask id="mask0_7_1095" style="mask-type:alpha" maskUnits="userSpaceOnUse" x="51" y="38" width="44" height="44">
<path fill-rule="evenodd" clip-rule="evenodd" d="M65.8878 38H51V82H95V38H83.1122C80.515 39.2806 77.5915 40 74.5 40C71.4085 40 68.485 39.2806 65.8878 38Z" fill="white"/>
</mask>
<g mask="url(#mask0_7_1095)">
<g filter="url(#filter1_i_7_1095)">
<circle cx="75.5" cy="62.5" r="19.5" fill="url(#paint1_radial_7_1095)"/>
</g>
<g style="mix-blend-mode:color-dodge">
<circle cx="66" cy="58" r="3" fill="#D9D9D9"/>
</g>
<circle cx="69" cy="53" r="6" fill="#29262A"/>
</g>
</g>
<g clip-path="url(#clip1_7_1095)">
<mask id="mask1_7_1095" style="mask-type:alpha" maskUnits="userSpaceOnUse" x="99" y="38" width="44" height="44">
<path fill-rule="evenodd" clip-rule="evenodd" d="M114.888 38H99V82H121H143V38H132.112C129.515 39.2806 126.592 40 123.5 40C120.408 40 117.485 39.2806 114.888 38Z" fill="white"/>
</mask>
<g mask="url(#mask1_7_1095)">
<g filter="url(#filter2_i_7_1095)">
<circle cx="118.5" cy="62.5" r="19.5" fill="url(#paint2_radial_7_1095)"/>
</g>
<g style="mix-blend-mode:color-dodge">
<circle cx="115" cy="58" r="3" fill="#D9D9D9"/>
</g>
<circle cx="112" cy="53" r="6" fill="#29262A"/>
</g>
</g>
<g clip-path="url(#clip2_7_1095)">
<mask id="mask2_7_1095" style="mask-type:alpha" maskUnits="userSpaceOnUse" x="52" y="82" width="90" height="34">
<rect x="52" y="82" width="90" height="34" rx="17" fill="url(#paint3_linear_7_1095)"/>
</mask>
<g mask="url(#mask2_7_1095)">
<path d="M78 97V97C87.1838 85.2259 105.439 86.7756 112.507 99.9293L115.5 105.5" stroke="#29282B" stroke-width="2" stroke-linecap="round"/>
<path d="M74.5 93.5L73.9376 96.1803C73.1965 99.7119 75.8915 103.031 79.5 103.031V103.031" stroke="#29282B" stroke-width="2" stroke-linecap="round"/>
<path d="M111.5 110.5V110.5C115.145 112.93 119.987 110.085 119.638 105.718L119.5 104" stroke="#29282B" stroke-width="2" stroke-linecap="round"/>
</g>
</g>
<path d="M58 30.5V30.5C59.493 26.0211 63.6845 23 68.4057 23H71" stroke="#29282B" stroke-width="3" stroke-linecap="round"/>
<path d="M124 19L128.098 19.5653C134.06 20.3875 138.5 25.4824 138.5 31.5V31.5" stroke="#29282B" stroke-width="3" stroke-linecap="round"/>
<defs>
<filter id="filter0_dii_7_1095" x="0" y="0" width="194" height="164" filterUnits="userSpaceOnUse" color-interpolation-filters="sRGB">
<feFlood flood-opacity="0" result="BackgroundImageFix"/>
<feColorMatrix in="SourceAlpha" type="matrix" values="0 0 0 0 0 0 0 0 0 0 0 0 0 0 0 0 0 0 127 0" result="hardAlpha"/>
<feOffset/>
<feGaussianBlur stdDeviation="12"/>
<feComposite in2="hardAlpha" operator="out"/>
<feColorMatrix type="matrix" values="0 0 0 0 0.351962 0 0 0 0 0.839703 0 0 0 0 0.870833 0 0 0 1 0"/>
<feBlend mode="normal" in2="BackgroundImageFix" result="effect1_dropShadow_7_1095"/>
<feBlend mode="normal" in="SourceGraphic" in2="effect1_dropShadow_7_1095" result="shape"/>
<feColorMatrix in="SourceAlpha" type="matrix" values="0 0 0 0 0 0 0 0 0 0 0 0 0 0 0 0 0 0 127 0" result="hardAlpha"/>
<feOffset dx="-10" dy="10"/>
<feGaussianBlur stdDeviation="6"/>
<feComposite in2="hardAlpha" operator="arithmetic" k2="-1" k3="1"/>
<feColorMatrix type="matrix" values="0 0 0 0 0.180392 0 0 0 0 0.164706 0 0 0 0 0.168627 0 0 0 1 0"/>
<feBlend mode="soft-light" in2="shape" result="effect2_innerShadow_7_1095"/>
<feColorMatrix in="SourceAlpha" type="matrix" values="0 0 0 0 0 0 0 0 0 0 0 0 0 0 0 0 0 0 127 0" result="hardAlpha"/>
<feOffset dx="-10" dy="-18"/>
<feGaussianBlur stdDeviation="6"/>
<feComposite in2="hardAlpha" operator="arithmetic" k2="-1" k3="1"/>
<feColorMatrix type="matrix" values="0 0 0 0 0.180392 0 0 0 0 0.164706 0 0 0 0 0.168627 0 0 0 1 0"/>
<feBlend mode="soft-light" in2="effect2_innerShadow_7_1095" result="effect3_innerShadow_7_1095"/>
</filter>
<filter id="filter1_i_7_1095" x="56" y="39" width="41" height="43" filterUnits="userSpaceOnUse" color-interpolation-filters="sRGB">
<feFlood flood-opacity="0" result="BackgroundImageFix"/>
<feBlend mode="normal" in="SourceGraphic" in2="BackgroundImageFix" result="shape"/>
<feColorMatrix in="SourceAlpha" type="matrix" values="0 0 0 0 0 0 0 0 0 0 0 0 0 0 0 0 0 0 127 0" result="hardAlpha"/>
<feOffset dx="2" dy="-4"/>
<feGaussianBlur stdDeviation="2"/>
<feComposite in2="hardAlpha" operator="arithmetic" k2="-1" k3="1"/>
<feColorMatrix type="matrix" values="0 0 0 0 0 0 0 0 0 0 0 0 0 0 0 0 0 0 0.1 0"/>
<feBlend mode="normal" in2="shape" result="effect1_innerShadow_7_1095"/>
</filter>
<filter id="filter2_i_7_1095" x="97" y="39" width="41" height="43" filterUnits="userSpaceOnUse" color-interpolation-filters="sRGB">
<feFlood flood-opacity="0" result="BackgroundImageFix"/>
<feBlend mode="normal" in="SourceGraphic" in2="BackgroundImageFix" result="shape"/>
<feColorMatrix in="SourceAlpha" type="matrix" values="0 0 0 0 0 0 0 0 0 0 0 0 0 0 0 0 0 0 127 0" result="hardAlpha"/>
<feOffset dx="-2" dy="-4"/>
<feGaussianBlur stdDeviation="2"/>
<feComposite in2="hardAlpha" operator="arithmetic" k2="-1" k3="1"/>
<feColorMatrix type="matrix" values="0 0 0 0 0 0 0 0 0 0 0 0 0 0 0 0 0 0 0.1 0"/>
<feBlend mode="normal" in2="shape" result="effect1_innerShadow_7_1095"/>
</filter>
<radialGradient id="paint0_radial_7_1095" cx="0" cy="0" r="1" gradientUnits="userSpaceOnUse" gradientTransform="translate(97 82) rotate(90) scale(58 73)">
<stop stop-color="#7DE4EA"/>
<stop offset="1" stop-color="#7BE3E9"/>
</radialGradient>
<radialGradient id="paint1_radial_7_1095" cx="0" cy="0" r="1" gradientUnits="userSpaceOnUse" gradientTransform="translate(75.5 62.5) rotate(90) scale(19.5)">
<stop offset="0.71875" stop-color="white"/>
<stop offset="1" stop-color="#DEF7FF"/>
</radialGradient>
<radialGradient id="paint2_radial_7_1095" cx="0" cy="0" r="1" gradientUnits="userSpaceOnUse" gradientTransform="translate(118.5 62.5) rotate(90) scale(19.5)">
<stop offset="0.71875" stop-color="white"/>
<stop offset="1" stop-color="#DEF7FF"/>
</radialGradient>
<linearGradient id="paint3_linear_7_1095" x1="97" y1="78.5" x2="97" y2="116" gradientUnits="userSpaceOnUse">
<stop offset="0.0181248" stop-color="#DEF7FF"/>
<stop offset="0.233521" stop-color="white"/>
</linearGradient>
<clipPath id="clip0_7_1095">
<rect width="44" height="44" fill="white" transform="translate(51 38)"/>
</clipPath>
<clipPath id="clip1_7_1095">
<rect width="44" height="44" fill="white" transform="translate(99 38)"/>
</clipPath>
<clipPath id="clip2_7_1095">
<rect width="90" height="34" fill="white" transform="translate(52 82)"/>
</clipPath>
</defs>
</svg>
